<svg id="visual" viewBox="0 0 900 600" width="900" height="600" xmlns="http://www.w3.org/2000/svg" xmlns:xlink="http://www.w3.org/1999/xlink" version="1.1"><rect x="0" y="0" width="900" height="600" fill="#001122"></rect><defs><linearGradient id="grad1_0" x1="33.3%" y1="0%" x2="100%" y2="100%"><stop offset="20%" stop-color="#c62368" stop-opacity="1"></stop><stop offset="80%" stop-color="#c62368" stop-opacity="1"></stop></linearGradient></defs><defs><linearGradient id="grad1_1" x1="33.3%" y1="0%" x2="100%" y2="100%"><stop offset="20%" stop-color="#c62368" stop-opacity="1"></stop><stop offset="80%" stop-color="#8b2970" stop-opacity="1"></stop></linearGradient></defs><defs><linearGradient id="grad1_2" x1="33.3%" y1="0%" x2="100%" y2="100%"><stop offset="20%" stop-color="#4f2b64" stop-opacity="1"></stop><stop offset="80%" stop-color="#8b2970" stop-opacity="1"></stop></linearGradient></defs><defs><linearGradient id="grad1_3" x1="33.3%" y1="0%" x2="100%" y2="100%"><stop offset="20%" stop-color="#4f2b64" stop-opacity="1"></stop><stop offset="80%" stop-color="#1c2247" stop-opacity="1"></stop></linearGradient></defs><defs><linearGradient id="grad1_4" x1="33.3%" y1="0%" x2="100%" y2="100%"><stop offset="20%" stop-color="#001122" stop-opacity="1"></stop><stop offset="80%" stop-color="#1c2247" stop-opacity="1"></stop></linearGradient></defs><defs><linearGradient id="grad2_0" x1="0%" y1="0%" x2="66.7%" y2="100%"><stop offset="20%" stop-color="#c62368" stop-opacity="1"></stop><stop offset="80%" stop-color="#c62368" stop-opacity="1"></stop></linearGradient></defs><defs><linearGradient id="grad2_1" x1="0%" y1="0%" x2="66.7%" y2="100%"><stop offset="20%" stop-color="#8b2970" stop-opacity="1"></stop><stop offset="80%" stop-color="#c62368" stop-opacity="1"></stop></linearGradient></defs><defs><linearGradient id="grad2_2" x1="0%" y1="0%" x2="66.7%" y2="100%"><stop offset="20%" stop-color="#8b2970" stop-opacity="1"></stop><stop offset="80%" stop-color="#4f2b64" stop-opacity="1"></stop></linearGradient></defs><defs><linearGradient id="grad2_3" x1="0%" y1="0%" x2="66.7%" y2="100%"><stop offset="20%" stop-color="#1c2247" stop-opacity="1"></stop><stop offset="80%" stop-color="#4f2b64" stop-opacity="1"></stop></linearGradient></defs><defs><linearGradient id="grad2_4" x1="0%" y1="0%" x2="66.7%" y2="100%"><stop offset="20%" stop-color="#1c2247" stop-opacity="1"></stop><stop offset="80%" stop-color="#001122" stop-opacity="1"></stop></linearGradient></defs><g transform="translate(900, 0)"><path d="M0 540.8C-64.8 476 -129.5 411.1 -216 374.1C-302.5 337.2 -410.6 328.1 -468.4 270.4C-526.1 212.7 -533.5 106.4 -540.8 0L0 0Z" fill="#091b35"></path><path d="M0 432.7C-51.8 380.8 -103.6 328.9 -172.8 299.3C-242 269.7 -328.5 262.5 -374.7 216.3C-420.9 170.2 -426.8 85.1 -432.7 0L0 0Z" fill="#342757"></path><path d="M0 324.5C-38.9 285.6 -77.7 246.6 -129.6 224.5C-181.5 202.3 -246.4 196.9 -281 162.2C-315.7 127.6 -320.1 63.8 -324.5 0L0 0Z" fill="#6d2b6c"></path><path d="M0 216.3C-25.9 190.4 -51.8 164.4 -86.4 149.6C-121 134.9 -164.2 131.2 -187.3 108.2C-210.5 85.1 -213.4 42.5 -216.3 0L0 0Z" fill="#aa256f"></path><path d="M0 108.2C-13 95.2 -25.9 82.2 -43.2 74.8C-60.5 67.4 -82.1 65.6 -93.7 54.1C-105.2 42.5 -106.7 21.3 -108.2 0L0 0Z" fill="#c62368"></path></g><g transform="translate(0, 600)"><path d="M0 -540.8C98.2 -528.7 196.3 -516.7 270.4 -468.4C344.5 -420.1 394.6 -335.6 435.6 -251.5C476.7 -167.4 508.8 -83.7 540.8 0L0 0Z" fill="#091b35"></path><path d="M0 -432.7C78.5 -423 157.1 -413.3 216.3 -374.7C275.6 -336.1 315.6 -268.5 348.5 -201.2C381.3 -133.9 407 -67 432.7 0L0 0Z" fill="#342757"></path><path d="M0 -324.5C58.9 -317.2 117.8 -310 162.2 -281C206.7 -252.1 236.7 -201.4 261.4 -150.9C286 -100.4 305.3 -50.2 324.5 0L0 0Z" fill="#6d2b6c"></path><path d="M0 -216.3C39.3 -211.5 78.5 -206.7 108.2 -187.3C137.8 -168 157.8 -134.2 174.2 -100.6C190.7 -67 203.5 -33.5 216.3 0L0 0Z" fill="#aa256f"></path><path d="M0 -108.2C19.6 -105.7 39.3 -103.3 54.1 -93.7C68.9 -84 78.9 -67.1 87.1 -50.3C95.3 -33.5 101.8 -16.7 108.2 0L0 0Z" fill="#c62368"></path></g></svg>